<?xml version="1.0" encoding="UTF-8"?>
<svg version="1.1" xmlns="http://www.w3.org/2000/svg" width="32" height="37">
<path d="M0 0 C1.87171875 -0.00386719 1.87171875 -0.00386719 3.78125 -0.0078125 C5.74578125 0.00378906 5.74578125 0.00378906 7.75 0.015625 C9.0596875 0.00789062 10.369375 0.00015625 11.71875 -0.0078125 C12.9665625 -0.00523438 14.214375 -0.00265625 15.5 0 C16.64984375 0.00225586 17.7996875 0.00451172 18.984375 0.00683594 C21.75 0.265625 21.75 0.265625 23.75 2.265625 C24.00878906 5.03125 24.00878906 5.03125 24.015625 8.515625 C24.01949219 10.38734375 24.01949219 10.38734375 24.0234375 12.296875 C24.01570313 13.6065625 24.00796875 14.91625 24 16.265625 C24.01160156 18.23015625 24.01160156 18.23015625 24.0234375 20.234375 C24.02085938 21.4821875 24.01828125 22.73 24.015625 24.015625 C24.01336914 25.16546875 24.01111328 26.3153125 24.00878906 27.5 C23.75 30.265625 23.75 30.265625 21.75 32.265625 C20.615625 32.575 19.48125 32.884375 18.3125 33.203125 C14.81401529 33.90489639 14.81401529 33.90489639 13.3125 35.890625 C10.99163961 37.93298215 8.64414515 37.73185456 5.6640625 37.62890625 C2.82259106 37.08960657 1.66064298 35.36116892 -0.25 33.265625 C-2.55988315 32.52176432 -4.89315944 31.84371797 -7.25 31.265625 C-10.00551511 28.51010989 -8.43568203 20.04587929 -8.4375 16.328125 C-8.44974609 15.01392578 -8.46199219 13.69972656 -8.47460938 12.34570312 C-8.47750977 10.4672168 -8.47750977 10.4672168 -8.48046875 8.55078125 C-8.48457764 7.39457275 -8.48868652 6.23836426 -8.49291992 5.04711914 C-8.00635588 -0.52416135 -4.77283546 0.00936375 0 0 Z " fill="#FFFAFA" transform="translate(8.25,-0.265625)"/>
<path d="M0 0 C1.87171875 -0.00386719 1.87171875 -0.00386719 3.78125 -0.0078125 C5.74578125 0.00378906 5.74578125 0.00378906 7.75 0.015625 C9.0596875 0.00789062 10.369375 0.00015625 11.71875 -0.0078125 C12.9665625 -0.00523438 14.214375 -0.00265625 15.5 0 C16.64984375 0.00225586 17.7996875 0.00451172 18.984375 0.00683594 C21.75 0.265625 21.75 0.265625 23.75 2.265625 C24.00878906 5.03125 24.00878906 5.03125 24.015625 8.515625 C24.01949219 10.38734375 24.01949219 10.38734375 24.0234375 12.296875 C24.01570313 13.6065625 24.00796875 14.91625 24 16.265625 C24.01160156 18.23015625 24.01160156 18.23015625 24.0234375 20.234375 C24.02085938 21.4821875 24.01828125 22.73 24.015625 24.015625 C24.01336914 25.16546875 24.01111328 26.3153125 24.00878906 27.5 C23.75 30.265625 23.75 30.265625 21.75 32.265625 C20.615625 32.575 19.48125 32.884375 18.3125 33.203125 C14.81401529 33.90489639 14.81401529 33.90489639 13.3125 35.890625 C10.99163961 37.93298215 8.64414515 37.73185456 5.6640625 37.62890625 C2.82259106 37.08960657 1.66064298 35.36116892 -0.25 33.265625 C-2.55988315 32.52176432 -4.89315944 31.84371797 -7.25 31.265625 C-10.00551511 28.51010989 -8.43568203 20.04587929 -8.4375 16.328125 C-8.44974609 15.01392578 -8.46199219 13.69972656 -8.47460938 12.34570312 C-8.47750977 10.4672168 -8.47750977 10.4672168 -8.48046875 8.55078125 C-8.48457764 7.39457275 -8.48868652 6.23836426 -8.49291992 5.04711914 C-8.00635588 -0.52416135 -4.77283546 0.00936375 0 0 Z M-4.25 4.265625 C-4.25 12.185625 -4.25 20.105625 -4.25 28.265625 C-1.94 28.925625 0.37 29.585625 2.75 30.265625 C5.1875 32.390625 5.1875 32.390625 6.75 34.265625 C8.94123057 33.28334923 10.52479648 32.52153809 12.125 30.703125 C13.75 29.265625 13.75 29.265625 19.75 28.265625 C19.75 20.345625 19.75 12.425625 19.75 4.265625 C11.83 4.265625 3.91 4.265625 -4.25 4.265625 Z " fill="#6B3535" transform="translate(8.25,-0.265625)"/>
<path d="M0 0 C1.134375 0.020625 2.26875 0.04125 3.4375 0.0625 C3.4375 1.7125 3.4375 3.3625 3.4375 5.0625 C4.4275 5.3925 5.4175 5.7225 6.4375 6.0625 C6.4375 7.7125 6.4375 9.3625 6.4375 11.0625 C7.0975 11.0625 7.7575 11.0625 8.4375 11.0625 C8.12828116 9.60346742 7.81501201 8.14529278 7.5 6.6875 C7.32597656 5.87539062 7.15195312 5.06328125 6.97265625 4.2265625 C6.51419307 2.033037 6.51419307 2.033037 5.4375 0.0625 C6.7575 0.7225 8.0775 1.3825 9.4375 2.0625 C9.4375 5.3625 9.4375 8.6625 9.4375 12.0625 C8.1175 12.0625 6.7975 12.0625 5.4375 12.0625 C5.1075 10.4125 4.7775 8.7625 4.4375 7.0625 C4.4375 9.3725 4.4375 11.6825 4.4375 14.0625 C1.4675 14.0625 -1.5025 14.0625 -4.5625 14.0625 C-4.58935938 11.91673363 -4.60883088 9.77087355 -4.625 7.625 C-4.63660156 6.43003906 -4.64820313 5.23507812 -4.66015625 4.00390625 C-4.51766709 -0.28786723 -4.40551892 0.07728981 0 0 Z " fill="#FF0606" transform="translate(14.5625,8.9375)"/>
<path d="M0 0 C1.65 0 3.3 0 5 0 C5 1.32 5 2.64 5 4 C3.35 4 1.7 4 0 4 C0 2.68 0 1.36 0 0 Z " fill="#FFFFFF" transform="translate(12,10)"/>
</svg>
